<svg width="138" height="40" viewBox="0 0 138 40" fill="none" xmlns="http://www.w3.org/2000/svg">
<path d="M132.889 40H5.11111C2.30128 40 0 37.7487 0 35V5C0 2.25125 2.30128 2.38419e-06 5.11111 2.38419e-06H132.889C135.699 2.38419e-06 138 2.25125 138 5V35C138 37.7487 135.699 40 132.889 40Z" fill="black"/>
<path d="M132.889 0.801251C135.255 0.801251 137.181 2.685 137.181 5V35C137.181 37.315 135.255 39.1988 132.889 39.1988H5.11111C2.74467 39.1988 0.819055 37.315 0.819055 35V5C0.819055 2.685 2.74467 0.801251 5.11111 0.801251H132.889ZM132.889 2.38419e-06H5.11111C2.30128 2.38419e-06 0 2.25125 0 5V35C0 37.7487 2.30128 40 5.11111 40H132.889C135.699 40 138 37.7487 138 35V5C138 2.25125 135.699 2.38419e-06 132.889 2.38419e-06Z" fill="#A6A6A6"/>
<path d="M10.6669 7.53869C10.3666 7.84619 10.1929 8.32494 10.1929 8.94494V31.0599C10.1929 31.6799 10.3666 32.1587 10.6669 32.4662L10.741 32.5337L23.4089 20.1462V19.8537L10.741 7.46619L10.6669 7.53869Z" fill="url(#paint0_linear_1902_304)"/>
<path d="M27.6269 24.2775L23.4089 20.1462V19.8537L27.632 15.7225L27.7265 15.7762L32.7278 18.56C34.155 19.35 34.155 20.65 32.7278 21.445L27.7265 24.2237L27.6269 24.2775V24.2775Z" fill="url(#paint1_linear_1902_304)"/>
<path d="M27.7265 24.2237L23.4089 20L10.6669 32.4662C11.1409 32.9537 11.914 33.0125 12.7931 32.525L27.7265 24.2237" fill="url(#paint2_linear_1902_304)"/>
<path d="M27.7265 15.7763L12.7931 7.475C11.914 6.9925 11.1409 7.05125 10.6669 7.53875L23.4089 20L27.7265 15.7763Z" fill="url(#paint3_linear_1902_304)"/>
<path d="M48.4713 10.2437C48.4713 11.0787 48.2157 11.7475 47.7123 12.2462C47.1334 12.8375 46.3795 13.135 45.4557 13.135C44.5728 13.135 43.8189 12.8325 43.2004 12.2362C42.5807 11.6312 42.2715 10.8887 42.2715 9.99999C42.2715 9.11124 42.5807 8.36874 43.2004 7.76874C43.8189 7.16749 44.5728 6.86499 45.4557 6.86499C45.8953 6.86499 46.3144 6.95374 46.7143 7.11874C47.113 7.28499 47.4375 7.50999 47.6726 7.78749L47.1385 8.31499C46.7284 7.84124 46.17 7.60749 45.4557 7.60749C44.8117 7.60749 44.2533 7.82749 43.7793 8.27124C43.3103 8.71624 43.0752 9.29249 43.0752 9.99999C43.0752 10.7075 43.3103 11.2887 43.7793 11.7337C44.2533 12.1725 44.8117 12.3975 45.4557 12.3975C46.1393 12.3975 46.7143 12.1725 47.1679 11.7287C47.4669 11.435 47.6369 11.03 47.6816 10.5125H45.4557V9.78999H48.4253C48.461 9.94624 48.4713 10.0975 48.4713 10.2437V10.2437Z" fill="white" stroke="white" stroke-width="0.16" stroke-miterlimit="10"/>
<path d="M53.1825 7.73869H50.3931V9.63869H52.9077V10.3612H50.3931V12.2612H53.1825V12.9974H49.6034V7.00244H53.1825V7.73869Z" fill="white" stroke="white" stroke-width="0.16" stroke-miterlimit="10"/>
<path d="M56.5072 12.9974H55.7175V7.73869H54.0066V7.00244H58.2194V7.73869H56.5072V12.9974V12.9974Z" fill="white" stroke="white" stroke-width="0.16" stroke-miterlimit="10"/>
<path d="M61.2682 12.9974V7.00244H62.0566V12.9974H61.2682Z" fill="white" stroke="white" stroke-width="0.16" stroke-miterlimit="10"/>
<path d="M65.5513 12.9974H64.768V7.73869H63.0507V7.00244H67.2686V7.73869H65.5513V12.9974Z" fill="white" stroke="white" stroke-width="0.16" stroke-miterlimit="10"/>
<path d="M75.2446 12.2262C74.6402 12.8325 73.8914 13.135 72.9982 13.135C72.0999 13.135 71.3512 12.8325 70.7468 12.2262C70.1437 11.6212 69.8434 10.8787 69.8434 9.99999C69.8434 9.12124 70.1437 8.37874 70.7468 7.77374C71.3512 7.16749 72.0999 6.86499 72.9982 6.86499C73.8863 6.86499 74.6351 7.16749 75.2394 7.77874C75.8477 8.38874 76.1479 9.12624 76.1479 9.99999C76.1479 10.8787 75.8477 11.6212 75.2446 12.2262ZM71.3307 11.7237C71.7856 12.1725 72.3389 12.3975 72.9982 12.3975C73.6524 12.3975 74.2108 12.1725 74.6606 11.7237C75.1142 11.275 75.3442 10.6987 75.3442 9.99999C75.3442 9.30124 75.1142 8.72499 74.6606 8.27624C74.2108 7.82749 73.6524 7.60249 72.9982 7.60249C72.3389 7.60249 71.7856 7.82749 71.3307 8.27624C70.8771 8.72499 70.6471 9.30124 70.6471 9.99999C70.6471 10.6987 70.8771 11.275 71.3307 11.7237V11.7237Z" fill="white" stroke="white" stroke-width="0.16" stroke-miterlimit="10"/>
<path d="M77.2557 12.9974V7.00244H78.2141L81.1938 11.6649H81.2283L81.1938 10.5124V7.00244H81.9822V12.9974H81.1593L78.039 8.10494H78.0045L78.039 9.26244V12.9974H77.2557V12.9974Z" fill="white" stroke="white" stroke-width="0.16" stroke-miterlimit="10"/>
<path d="M69.6491 21.7525C67.2482 21.7525 65.2868 23.54 65.2868 26.0063C65.2868 28.4525 67.2482 30.2588 69.6491 30.2588C72.0552 30.2588 74.0166 28.4525 74.0166 26.0063C74.0166 23.54 72.0552 21.7525 69.6491 21.7525ZM69.6491 28.5838C68.3317 28.5838 67.1984 27.52 67.1984 26.0063C67.1984 24.4725 68.3317 23.4275 69.6491 23.4275C70.9665 23.4275 72.105 24.4725 72.105 26.0063C72.105 27.52 70.9665 28.5838 69.6491 28.5838V28.5838ZM60.131 21.7525C57.7249 21.7525 55.7686 23.54 55.7686 26.0063C55.7686 28.4525 57.7249 30.2588 60.131 30.2588C62.5357 30.2588 64.4933 28.4525 64.4933 26.0063C64.4933 23.54 62.5357 21.7525 60.131 21.7525ZM60.131 28.5838C58.8123 28.5838 57.6751 27.52 57.6751 26.0063C57.6751 24.4725 58.8123 23.4275 60.131 23.4275C61.4484 23.4275 62.5817 24.4725 62.5817 26.0063C62.5817 27.52 61.4484 28.5838 60.131 28.5838ZM48.8047 23.0563V24.8638H53.2169C53.0879 25.8738 52.7429 26.6163 52.2139 27.1338C51.5699 27.7588 50.5668 28.4525 48.8047 28.4525C46.0895 28.4525 43.9632 26.3088 43.9632 23.6525C43.9632 20.9963 46.0895 18.8525 48.8047 18.8525C50.2729 18.8525 51.3411 19.4138 52.1295 20.1413L53.4316 18.8675C52.3289 17.8375 50.862 17.0463 48.8047 17.0463C45.0813 17.0463 41.952 20.01 41.952 23.6525C41.952 27.295 45.0813 30.2588 48.8047 30.2588C50.8172 30.2588 52.3289 29.6138 53.5172 28.4038C54.7349 27.2125 55.1144 25.5375 55.1144 24.185C55.1144 23.765 55.0786 23.3788 55.0147 23.0563H48.8047ZM95.1191 24.4575C94.76 23.5063 93.6522 21.7525 91.3956 21.7525C89.1595 21.7525 87.2978 23.4763 87.2978 26.0063C87.2978 28.3888 89.1403 30.2588 91.6103 30.2588C93.6075 30.2588 94.76 29.0675 95.2341 28.3738L93.7518 27.4075C93.2573 28.115 92.584 28.5838 91.6103 28.5838C90.643 28.5838 89.9492 28.15 89.5045 27.295L95.3197 24.9413L95.1191 24.4575V24.4575ZM89.1902 25.8738C89.1403 24.2338 90.4922 23.3938 91.4608 23.3938C92.2198 23.3938 92.8638 23.765 93.0785 24.2963L89.1902 25.8738V25.8738ZM84.4637 30H86.3752V17.5H84.4637V30ZM81.3331 22.7H81.2692C80.8399 22.2025 80.0209 21.7525 78.9833 21.7525C76.806 21.7525 74.8152 23.6225 74.8152 26.02C74.8152 28.4038 76.806 30.2588 78.9833 30.2588C80.0209 30.2588 80.8399 29.805 81.2692 29.2925H81.3331V29.9025C81.3331 31.5288 80.4451 32.4025 79.0127 32.4025C77.8448 32.4025 77.1203 31.5775 76.8213 30.8838L75.1589 31.5625C75.6381 32.69 76.9069 34.0775 79.0127 34.0775C81.2539 34.0775 83.145 32.7875 83.145 29.6488V22.0113H81.3331V22.7V22.7ZM79.1469 28.5838C77.8295 28.5838 76.7267 27.505 76.7267 26.02C76.7267 24.5213 77.8295 23.4275 79.1469 23.4275C80.4451 23.4275 81.4686 24.5213 81.4686 26.02C81.4686 27.505 80.4451 28.5838 79.1469 28.5838V28.5838ZM104.069 17.5H99.4967V30H101.403V25.2638H104.069C106.186 25.2638 108.262 23.765 108.262 21.3813C108.262 18.9988 106.181 17.5 104.069 17.5V17.5ZM104.118 23.525H101.403V19.2388H104.118C105.542 19.2388 106.355 20.395 106.355 21.3813C106.355 22.3488 105.542 23.525 104.118 23.525ZM115.903 21.7288C114.526 21.7288 113.094 22.3238 112.505 23.6425L114.196 24.3363C114.56 23.6425 115.23 23.4175 115.938 23.4175C116.927 23.4175 117.93 23.9988 117.945 25.025V25.1563C117.6 24.9613 116.862 24.6725 115.953 24.6725C114.131 24.6725 112.275 25.6538 112.275 27.485C112.275 29.16 113.767 30.2388 115.445 30.2388C116.728 30.2388 117.435 29.6725 117.88 29.0138H117.945V29.98H119.787V25.185C119.787 22.9688 118.095 21.7288 115.903 21.7288ZM115.673 28.5788C115.05 28.5788 114.181 28.2763 114.181 27.52C114.181 26.5525 115.265 26.1813 116.202 26.1813C117.042 26.1813 117.435 26.3625 117.945 26.6013C117.796 27.7588 116.777 28.5788 115.673 28.5788V28.5788ZM126.495 22.0025L124.303 27.4213H124.238L121.973 22.0025H119.917L123.321 29.575L121.379 33.7888H123.371L128.616 22.0025H126.495V22.0025ZM109.31 30H111.222V17.5H109.31V30Z" fill="white"/>
<defs>
<linearGradient id="paint0_linear_1902_304" x1="22.2842" y1="31.2902" x2="5.50582" y2="14.1391" gradientUnits="userSpaceOnUse">
<stop stop-color="#00A0FF"/>
<stop offset="0.0066" stop-color="#00A1FF"/>
<stop offset="0.2601" stop-color="#00BEFF"/>
<stop offset="0.5122" stop-color="#00D2FF"/>
<stop offset="0.7604" stop-color="#00DFFF"/>
<stop offset="1" stop-color="#00E3FF"/>
</linearGradient>
<linearGradient id="paint1_linear_1902_304" x1="34.5863" y1="19.9986" x2="9.85172" y2="19.9986" gradientUnits="userSpaceOnUse">
<stop stop-color="#FFE000"/>
<stop offset="0.4087" stop-color="#FFBD00"/>
<stop offset="0.7754" stop-color="#FFA500"/>
<stop offset="1" stop-color="#FF9C00"/>
</linearGradient>
<linearGradient id="paint2_linear_1902_304" x1="25.3787" y1="17.7039" x2="2.62589" y2="-5.55454" gradientUnits="userSpaceOnUse">
<stop stop-color="#FF3A44"/>
<stop offset="1" stop-color="#C31162"/>
</linearGradient>
<linearGradient id="paint3_linear_1902_304" x1="7.45944" y1="39.8238" x2="17.6196" y2="29.438" gradientUnits="userSpaceOnUse">
<stop stop-color="#32A071"/>
<stop offset="0.0685" stop-color="#2DA771"/>
<stop offset="0.4762" stop-color="#15CF74"/>
<stop offset="0.8009" stop-color="#06E775"/>
<stop offset="1" stop-color="#00F076"/>
</linearGradient>
</defs>
</svg>
