<?xml version="1.0" encoding="UTF-8"?>
<svg width="49px" height="50px" viewBox="0 0 49 50" version="1.1" xmlns="http://www.w3.org/2000/svg" xmlns:xlink="http://www.w3.org/1999/xlink">
    <!-- Generator: Sketch 57.1 (83088) - https://sketch.com -->
    <title>Adobe-PDF-File-Icon-01</title>
    <desc>Created with Sketch.</desc>
    <g id="Finalized" stroke="none" stroke-width="1" fill="none" fill-rule="evenodd">
        <g id="10.1.Downloads" transform="translate(-743.000000, -453.000000)" fill-rule="nonzero">
            <g id="Adobe-PDF-File-Icon-01" transform="translate(743.000000, 453.000000)">
                <polyline id="XMLID_19_" fill="#949494" points="38.8934426 0.191256831 38.8797814 0.191256831 48.7978142 10.5327869 48.7978142 49.8087432 11.7759563 49.8087432 11.7759563 49.931694 48.920765 49.931694 48.920765 10.6557377 38.8934426 0.191256831"></polyline>
                <polyline id="XMLID_20_" fill="#F1F1F1" points="38.7568306 0.0683060109 11.6530055 0.0683060109 11.6530055 49.8087432 48.7978142 49.8087432 48.7978142 10.5327869 38.7568306 0.0683060109"></polyline>
                <polygon id="XMLID_39_" fill="#808080" points="11.3797814 2.73224044 0 2.73224044 0 14.8907104 11.3797814 14.8907104 35.7923497 14.8907104 35.7923497 2.73224044"></polygon>
                <rect id="XMLID_30_" fill="#DC1D00" x="0.232240437" y="2.5273224" width="35.7513661" height="12.1721311"></rect>
                <g id="XMLID_2_" transform="translate(9.699454, 4.508197)" fill="#4D4D4D">
                    <path d="M2.04918033,4.15300546 C1.99453552,4.15300546 1.93989071,4.15300546 1.8852459,4.15300546 L1.8852459,1.51639344 L2.22677596,1.51639344 C2.62295082,1.51639344 2.86885246,1.63934426 3.04644809,1.8442623 C3.26502732,2.09016393 3.37431694,2.5273224 3.37431694,2.84153005 C3.37431694,3.27868852 3.37431694,3.67486339 2.97814208,3.96174863 C2.77322404,4.11202186 2.43169399,4.15300546 2.04918033,4.15300546 M2.39071038,0.0683060109 C2.37704918,0.0683060109 2.34972678,0.0683060109 2.33606557,0.0683060109 C2.15846995,0.0683060109 2.03551913,0.0683060109 1.96721311,0.0683060109 L0.0683060109,0.0683060109 L0.0683060109,8.62021858 L1.8989071,8.62021858 L1.8989071,5.73770492 L2.30874317,5.76502732 C2.73224044,5.76502732 3.1147541,5.66939891 3.45628415,5.56010929 C3.79781421,5.45081967 4.08469945,5.25956284 4.33060109,5.04098361 C4.57650273,4.82240437 4.80874317,4.54918033 4.93169399,4.23497268 C5.12295082,3.7568306 5.16393443,3.08743169 5.12295082,2.62295082 C5.06830601,2.15846995 5.05464481,1.77595628 4.91803279,1.47540984 C4.78142077,1.17486339 4.60382514,0.928961749 4.3989071,0.737704918 C4.18032787,0.546448087 3.94808743,0.409836066 3.70218579,0.31420765 C3.44262295,0.218579235 3.21038251,0.163934426 2.96448087,0.12295082 C2.74590164,0.0819672131 2.55464481,0.0683060109 2.39071038,0.0683060109" id="XMLID_35_"></path>
                    <path d="M8.26502732,7.06284153 C8.21038251,7.06284153 8.1557377,7.06284153 8.08743169,7.06284153 L8.08743169,1.61202186 C8.1010929,1.61202186 8.1010929,1.61202186 8.1147541,1.61202186 C8.48360656,1.61202186 8.94808743,1.61202186 9.18032787,1.80327869 C9.42622951,1.99453552 9.61748634,2.24043716 9.75409836,2.5136612 C9.89071038,2.80054645 9.9863388,3.1147541 10,3.45628415 C10.0136612,3.85245902 10,4.16666667 10,4.43989071 C10,4.69945355 10,5.0273224 9.94535519,5.35519126 C9.89071038,5.68306011 9.78142077,5.96994536 9.64480874,6.2568306 C9.49453552,6.53005464 9.23497268,6.72131148 9.00273224,6.8989071 C8.79781421,7.02185792 8.55191257,7.06284153 8.26502732,7.06284153 M8.59289617,0.0546448087 C8.40163934,0.0546448087 8.19672131,0.0683060109 8.07377049,0.0683060109 C7.84153005,0.0819672131 7.70491803,0.0819672131 7.65027322,0.0819672131 L6.2568306,0.0819672131 L6.2568306,8.63387978 L7.89617486,8.63387978 C8.62021858,8.63387978 9.22131148,8.52459016 9.72677596,8.31967213 C10.2322404,8.1147541 10.6284153,7.81420765 10.942623,7.44535519 C11.2431694,7.07650273 11.4754098,6.62568306 11.6120219,6.10655738 C11.7486339,5.58743169 11.8169399,5.0273224 11.8169399,4.41256831 C11.8169399,3.62021858 11.8169399,3.00546448 11.6666667,2.40437158 C11.5300546,1.8579235 11.2431694,1.42076503 10.942623,1.09289617 C10.6557377,0.765027322 10.3278689,0.532786885 9.9863388,0.382513661 C9.64480874,0.232240437 9.31693989,0.12295082 9.00273224,0.0683060109 C8.86612022,0.0546448087 8.7295082,0.0546448087 8.59289617,0.0546448087" id="XMLID_38_"></path>
                    <polyline id="XMLID_64_" points="17.3087432 0.0819672131 12.9781421 0.0819672131 12.9781421 8.63387978 14.8087432 8.63387978 14.8087432 5.23224044 17.1174863 5.23224044 17.1174863 3.64754098 14.8087432 3.64754098 14.8087432 1.66666667 17.3087432 1.66666667 17.3087432 0.0819672131"></polyline>
                </g>
                <path d="M42.1038251,33.715847 C42.0901639,33.5519126 41.9398907,31.5710383 38.4153005,31.6530055 C34.9043716,31.7349727 34.0437158,31.9535519 34.0437158,31.9535519 C34.0437158,31.9535519 31.420765,29.2896175 30.4644809,27.226776 C30.4644809,27.226776 31.6256831,23.8251366 31.5710383,21.6939891 C31.5163934,19.5628415 31.010929,18.3333333 29.3715847,18.3468819 C27.7322404,18.3606557 27.5,19.795082 27.704918,21.9262295 C27.8961749,23.8387978 28.8934426,26.0928962 28.8934426,26.0928962 C28.8934426,26.0928962 28.1420765,28.442623 27.1311475,30.7923497 C26.1338798,33.1420765 25.4508197,34.3715847 25.4508197,34.3715847 C25.4508197,34.3715847 22.0628415,35.5054645 20.6010929,36.8715847 C19.1393443,38.2377049 18.5382514,39.2896175 19.3032787,40.3415301 C19.9726776,41.2431694 22.295082,41.4480874 24.3852459,38.715847 C26.4617486,35.9836066 27.4043716,34.2759563 27.4043716,34.2759563 C27.4043716,34.2759563 30.5874317,33.4016393 31.5710383,33.1693989 C32.5546448,32.9371585 33.7568306,32.7459016 33.7568306,32.7459016 C33.7568306,32.7459016 36.6530055,35.6693989 39.4535519,35.5601093 C42.2540984,35.4508197 42.1174863,33.8797814 42.1038251,33.715847 Z M20.0273224,39.8770492 C18.2923497,38.8387978 23.6748634,35.6284153 24.6584699,35.5191257 C24.6584699,35.5191257 21.8579235,40.9699454 20.0273224,39.8770492 Z M28.3060109,21.1612022 C28.3060109,19.4672131 28.852459,19.0163934 29.2759563,19.0163934 C29.6994536,19.0163934 30.1775956,19.2213115 30.1912568,20.6830601 C30.204918,22.1448087 29.2759563,25.0136612 29.2759563,25.0136612 C28.9617486,24.6721311 28.3060109,22.8415301 28.3060109,21.1612022 Z M30.5601093,32.7322404 C28.8114754,33.1557377 27.9371585,33.6065574 27.9371585,33.6065574 C27.9371585,33.6065574 27.9371585,33.6065574 28.647541,32.0081967 C29.3579235,30.4098361 30.0956284,28.2240437 30.0956284,28.2240437 C31.079235,30.068306 33.0464481,32.2404372 33.0464481,32.2404372 C33.0464481,32.2404372 32.3087432,32.295082 30.5601093,32.7322404 Z M34.7540984,32.5819672 C34.7540984,32.5819672 40.4371585,31.557377 40.4371585,33.4972678 C40.4371585,35.4234973 36.9125683,34.6311475 34.7540984,32.5819672 Z" id="XMLID_28_" fill="#DC1D00"></path>
                <polygon id="XMLID_44_" fill="#949494" points="38.6202186 0.204918033 38.6202186 10.6693989 48.6612022 10.6693989"></polygon>
                <polygon id="XMLID_21_" fill="#F1F1F1" points="38.7568306 0.0683060109 38.7568306 10.5327869 48.7978142 10.5327869"></polygon>
                <g id="XMLID_23_" transform="translate(9.562842, 4.371585)" fill="#FFFEFE">
                    <path d="M2.04918033,4.15300546 C1.99453552,4.15300546 1.93989071,4.15300546 1.8852459,4.15300546 L1.8852459,1.51639344 L2.22677596,1.51639344 C2.62295082,1.51639344 2.86885246,1.63934426 3.04644809,1.8442623 C3.26502732,2.09016393 3.37431694,2.5273224 3.37431694,2.84153005 C3.37431694,3.27868852 3.37431694,3.67486339 2.97814208,3.96174863 C2.77322404,4.11202186 2.43169399,4.15300546 2.04918033,4.15300546 M2.39071038,0.0683060109 C2.37704918,0.0683060109 2.34972678,0.0683060109 2.33606557,0.0683060109 C2.15846995,0.0683060109 2.03551913,0.0683060109 1.96721311,0.0683060109 L0.0683060109,0.0683060109 L0.0683060109,8.62021858 L1.8989071,8.62021858 L1.8989071,5.73770492 L2.30874317,5.76502732 C2.73224044,5.76502732 3.1147541,5.66939891 3.45628415,5.56010929 C3.79781421,5.45081967 4.08469945,5.25956284 4.33060109,5.04098361 C4.57650273,4.82240437 4.80874317,4.54918033 4.93169399,4.23497268 C5.12295082,3.7568306 5.16393443,3.08743169 5.12295082,2.62295082 C5.06830601,2.15846995 5.05464481,1.77595628 4.91803279,1.47540984 C4.78142077,1.17486339 4.60382514,0.928961749 4.3989071,0.737704918 C4.18032787,0.546448087 3.94808743,0.409836066 3.70218579,0.31420765 C3.44262295,0.218579235 3.21038251,0.163934426 2.96448087,0.12295082 C2.74590164,0.0819672131 2.55464481,0.0683060109 2.39071038,0.0683060109" id="XMLID_43_"></path>
                    <path d="M8.26502732,7.06284153 C8.21038251,7.06284153 8.1557377,7.06284153 8.08743169,7.06284153 L8.08743169,1.61202186 C8.1010929,1.61202186 8.1010929,1.61202186 8.1147541,1.61202186 C8.48360656,1.61202186 8.94808743,1.61202186 9.18032787,1.80327869 C9.42622951,1.99453552 9.61748634,2.24043716 9.75409836,2.5136612 C9.89071038,2.80054645 9.9863388,3.1147541 10,3.45628415 C10.0136612,3.85245902 10,4.16666667 10,4.43989071 C10,4.69945355 10,5.0273224 9.94535519,5.35519126 C9.89071038,5.68306011 9.78142077,5.96994536 9.64480874,6.2568306 C9.49453552,6.53005464 9.23497268,6.72131148 9.00273224,6.8989071 C8.79781421,7.02185792 8.55191257,7.06284153 8.26502732,7.06284153 M8.59289617,0.0546448087 C8.40163934,0.0546448087 8.19672131,0.0683060109 8.07377049,0.0683060109 C7.84153005,0.0819672131 7.70491803,0.0819672131 7.65027322,0.0819672131 L6.2568306,0.0819672131 L6.2568306,8.63387978 L7.89617486,8.63387978 C8.62021858,8.63387978 9.22131148,8.52459016 9.72677596,8.31967213 C10.2322404,8.1147541 10.6284153,7.81420765 10.942623,7.44535519 C11.2431694,7.07650273 11.4754098,6.62568306 11.6120219,6.10655738 C11.7486339,5.58743169 11.8169399,5.0273224 11.8169399,4.41256831 C11.8169399,3.62021858 11.8169399,3.00546448 11.6666667,2.40437158 C11.5300546,1.8579235 11.2431694,1.42076503 10.942623,1.09289617 C10.6557377,0.765027322 10.3278689,0.532786885 9.9863388,0.382513661 C9.64480874,0.232240437 9.31693989,0.12295082 9.00273224,0.0683060109 C8.86612022,0.0546448087 8.7295082,0.0546448087 8.59289617,0.0546448087" id="XMLID_32_"></path>
                    <polyline id="XMLID_24_" points="17.3087432 0.0819672131 12.9781421 0.0819672131 12.9781421 8.63387978 14.8087432 8.63387978 14.8087432 5.23224044 17.1174863 5.23224044 17.1174863 3.64754098 14.8087432 3.64754098 14.8087432 1.66666667 17.3087432 1.66666667 17.3087432 0.0819672131"></polyline>
                </g>
            </g>
        </g>
    </g>
</svg>