<svg width="150" height="18" viewBox="0 0 150 18" fill="none" xmlns="http://www.w3.org/2000/svg">
<path d="M70.6962 4.79237H58.5117C57.9616 4.79237 57.6366 4.91738 57.4032 5.11323C57.1366 5.33409 56.9615 5.62995 56.899 5.97582C56.8324 6.34669 56.9532 6.66756 57.1699 6.86341C57.3407 7.03426 57.5783 7.10927 58.1033 7.10927H65.5499C67.4542 7.10927 68.6294 7.70099 69.3711 8.61358C70.1128 9.52617 70.4462 10.7596 70.217 12.0681C70.0045 13.2765 69.3211 14.4392 68.3877 15.3268C67.2751 16.3894 65.7999 17.0561 63.7955 17.0561H50.6567L51.411 12.7848H63.7455C64.4456 12.7848 64.8248 12.6348 65.0957 12.364C65.3082 12.1681 65.454 11.8931 65.5082 11.5972C65.5707 11.2513 65.4999 10.9305 65.3124 10.7096C65.129 10.4638 64.8248 10.3388 64.1748 10.3388H57.2824C55.0238 10.3388 53.8279 9.74703 53.0861 8.83444C52.3444 7.92185 52.0319 6.70923 52.2694 5.35492C52.5028 4.02146 53.2737 2.788 54.3363 1.87541C55.3989 0.96282 56.7823 0.371094 59.0409 0.371094H71.4755L70.6962 4.79237Z" fill="#00A87B"/>
<path d="M96.5446 0.375L95.7653 4.79211H88.3437L86.181 17.0642H81.6181L83.7808 4.79211H76.3384L77.1176 0.375H96.5446Z" fill="#00A87B"/>
<path d="M119.884 0.375L119.105 4.79627H106.22C105.945 4.79627 105.791 4.94629 105.745 5.21715L105.408 7.11734H113.213L112.646 10.326H104.841L104.483 12.3512C104.429 12.6471 104.529 12.7971 104.804 12.7971H117.688L116.934 17.0683H101.491C99.9115 17.0683 99.2448 16.3016 99.5198 14.7473L101.658 2.62522C101.924 1.12091 102.858 0.379168 104.462 0.379168H119.884V0.375Z" fill="#00A87B"/>
<path d="M45.1226 16.3225L41.3389 3.08781C40.7514 1.0126 39.3512 0 36.9927 0C34.5591 0 32.8548 1.0126 31.5338 3.08781L23.1371 16.3225C22.9621 16.5933 22.8496 16.8142 22.7329 17.0642H27.9709C28.0293 16.8683 28.1418 16.6683 28.2501 16.4725L29.4794 14.4723H29.4836L32.6422 9.3801L35.4175 4.81715C35.6634 4.42127 35.9592 4.30043 36.2593 4.30043C36.5843 4.30043 36.8593 4.45044 36.9468 4.81715L38.5011 10.7927H35.0425L32.7422 14.4723H39.5054L40.0513 16.4975C40.0971 16.6683 40.1388 16.8433 40.1513 17.0642H45.2643C45.2352 16.8183 45.1977 16.5933 45.1226 16.3225Z" fill="#00A87B"/>
<path d="M3.32286 0.454275C3.33119 0.40427 3.3812 0.366766 3.4437 0.366766L15.9866 0.350098C16.9117 0.350098 17.8035 0.500113 18.591 0.812644C19.9745 1.3627 21.4705 2.56282 20.9413 5.15058C20.012 9.68019 14.6865 10.2094 14.6865 10.2094L6.19398 11.522L5.09387 16.9768C5.08553 17.0268 5.03553 17.0643 4.97302 17.0643H0.122539C0.0475317 17.0643 -0.0108074 17.0059 0.00169381 16.9434L1.14347 11.3887C1.14347 11.3887 1.6852 7.97586 6.25648 7.28412C10.8278 6.58822 15.2741 5.89648 15.2741 5.89648C15.2741 5.89648 15.8033 5.79231 15.8991 5.33809C15.9908 4.88388 15.6658 4.67553 15.3699 4.67553C15.0907 4.67553 3.99793 4.67553 2.61029 4.67553C2.53528 4.67553 2.47694 4.61719 2.49361 4.55468L3.32286 0.454275Z" fill="#00A87B"/>
<path d="M13.8325 12.3389L8.94453 13.1556C8.81535 13.1764 8.74451 13.2931 8.79035 13.3973L10.4489 16.956C10.4822 17.0227 10.5572 17.0685 10.6405 17.0685H15.9286C16.0744 17.0685 16.1744 16.9393 16.1202 16.8226L14.0617 12.4472C14.0284 12.368 13.9325 12.3222 13.8325 12.3389Z" fill="#00A87B"/>
<path d="M125.906 0.437606C125.914 0.387601 125.964 0.350098 126.027 0.350098H138.566C139.491 0.350098 140.383 0.500113 141.17 0.812644C142.554 1.3627 144.05 2.56282 143.52 5.15058C142.591 9.68019 137.266 10.2094 137.266 10.2094L128.773 11.522L127.673 16.9768C127.665 17.0268 127.615 17.0643 127.552 17.0643H122.702C122.627 17.0643 122.568 17.0059 122.581 16.9434L123.723 11.3887C123.723 11.3887 124.264 7.97586 128.836 7.28412C133.407 6.58822 137.853 5.89648 137.853 5.89648C137.853 5.89648 138.382 5.79231 138.478 5.33809C138.57 4.88388 138.245 4.67553 137.949 4.67553C137.67 4.67553 126.581 4.66303 125.194 4.65886C125.119 4.65886 125.06 4.60052 125.077 4.53801L125.906 0.437606Z" fill="#00A87B"/>
<path d="M136.416 12.3389L131.528 13.1556C131.398 13.1764 131.328 13.2931 131.373 13.3973L133.032 16.956C133.065 17.0227 133.14 17.0685 133.224 17.0685H138.512C138.657 17.0685 138.757 16.9393 138.703 16.8226L136.645 12.4472C136.607 12.368 136.511 12.3222 136.416 12.3389Z" fill="#00A87B"/>
<path d="M145.387 2.50459C145.387 2.18789 145.45 1.88786 145.571 1.60867C145.691 1.32947 145.858 1.08778 146.066 0.87943C146.275 0.671076 146.521 0.504392 146.8 0.383546C147.079 0.262701 147.379 0.200195 147.696 0.200195C148.012 0.200195 148.313 0.262701 148.592 0.383546C148.871 0.504392 149.113 0.671076 149.321 0.87943C149.529 1.08778 149.696 1.32947 149.817 1.60867C149.938 1.88786 150 2.18789 150 2.50459C150 2.82129 149.938 3.12132 149.817 3.40051C149.696 3.67971 149.529 3.9214 149.321 4.13392C149.113 4.34227 148.867 4.50896 148.592 4.6298C148.313 4.75065 148.012 4.81315 147.696 4.81315C147.379 4.81315 147.079 4.75065 146.8 4.6298C146.521 4.50896 146.279 4.34227 146.066 4.13392C145.858 3.92557 145.691 3.67971 145.571 3.40051C145.45 3.11715 145.387 2.82129 145.387 2.50459ZM145.796 2.50459C145.796 2.76295 145.846 3.00881 145.946 3.24216C146.046 3.47135 146.179 3.67554 146.35 3.84639C146.521 4.01724 146.725 4.15476 146.954 4.2506C147.187 4.35061 147.433 4.40061 147.692 4.40061C147.95 4.40061 148.2 4.35061 148.429 4.2506C148.663 4.15059 148.863 4.01724 149.033 3.84639C149.204 3.67554 149.342 3.47552 149.438 3.24216C149.538 3.00881 149.588 2.76295 149.588 2.50459C149.588 2.24623 149.538 1.99621 149.438 1.76702C149.338 1.53366 149.204 1.33364 149.033 1.16279C148.863 0.991941 148.663 0.854427 148.429 0.758584C148.2 0.658574 147.95 0.608569 147.692 0.608569C147.433 0.608569 147.187 0.658574 146.954 0.758584C146.725 0.858594 146.521 0.991941 146.35 1.16279C146.179 1.33364 146.041 1.53783 145.946 1.76702C145.846 1.99621 145.796 2.24206 145.796 2.50459ZM146.808 1.17113H147.825C148.146 1.17113 148.379 1.2378 148.529 1.37531C148.679 1.51283 148.754 1.70868 148.754 1.96287C148.754 2.19206 148.696 2.36708 148.575 2.48376C148.454 2.60043 148.308 2.66711 148.125 2.68794L148.808 3.80472H148.3L147.642 2.72545H147.287V3.80472H146.804V1.17113H146.808ZM147.292 2.31707H147.646C147.721 2.31707 147.796 2.31291 147.871 2.30874C147.946 2.30041 148.012 2.2879 148.071 2.2629C148.129 2.2379 148.179 2.20039 148.217 2.15039C148.254 2.10038 148.271 2.03371 148.271 1.9462C148.271 1.85869 148.254 1.79202 148.217 1.74202C148.179 1.69201 148.133 1.65451 148.071 1.6295C148.012 1.6045 147.942 1.592 147.871 1.58783C147.796 1.58367 147.721 1.5795 147.646 1.5795H147.292V2.31707Z" fill="#00A87B"/>
</svg>
